<?xml version="1.0" standalone="no"?>
<!DOCTYPE svg PUBLIC "-//W3C//DTD SVG 20010904//EN"
 "http://www.w3.org/TR/2001/REC-SVG-20010904/DTD/svg10.dtd">
<svg version="1.0" xmlns="http://www.w3.org/2000/svg"
 width="1700.000000pt" height="2200.000000pt" viewBox="0 0 1700.000000 2200.000000"
 preserveAspectRatio="xMidYMid meet">
<metadata>
Created by potrace 1.13, written by Peter Selinger 2001-2015
</metadata>
<g transform="translate(0.000000,2200.000000) scale(0.100000,-0.100000)"
fill="#000000" stroke="none">
<path d="M3565 19059 c-289 -58 -622 -95 -952 -106 l-201 -6 -5 -451 c-4 -399
-7 -464 -25 -562 -36 -191 -113 -364 -211 -476 -23 -25 -41 -50 -41 -55 0 -13
54 -63 67 -63 13 0 87 101 134 183 66 117 119 266 143 410 l7 37 649 0 650 0
0 305 0 305 -640 0 -640 0 0 145 0 145 103 0 c183 0 523 30 802 71 132 19 376
66 384 74 2 2 -7 20 -19 39 -26 43 -21 43 -205 5z m125 -784 l0 -225 -601 0
-602 0 7 92 c3 50 6 151 6 225 l0 133 595 0 595 0 0 -225z"/>
</g>
</svg>
